<svg width="236" height="53" viewBox="0 0 236 53" fill="none" xmlns="http://www.w3.org/2000/svg">
<path d="M119.213 14.8819L117.363 7.29437H113.935L112.085 14.8819H113.227L114.805 8.3241H116.492L118.07 14.8819H119.213Z" fill="black"/>
<path d="M126.943 7.29437L123.243 12.985H123.134V7.29437H121.992V14.8819H123.243L126.943 9.19125H127.052V14.8819H128.195V7.29437H126.943Z" fill="black"/>
<path d="M134.017 8.3241H135.595L136.901 13.8521H132.711L134.017 8.3241ZM131.895 14.8819H137.717V16.1826H138.86V13.8521H138.044L136.466 7.29437H133.146L131.568 13.8521H130.752V16.1826H131.895V14.8819Z" fill="black"/>
<path d="M147.023 13.8521H142.561V11.5759H146.098V10.5462H142.561V8.3241H147.023V7.29437H141.419V14.8819H147.023V13.8521Z" fill="black"/>
<path d="M156.223 10.0584C156.223 9.67901 156.147 9.32132 156.006 8.9853C155.853 8.64928 155.646 8.35662 155.374 8.10732C155.102 7.85802 154.787 7.65207 154.417 7.51116C154.036 7.37025 153.622 7.29437 153.176 7.29437H149.857V14.8819H150.999V12.8224H153.176C153.622 12.8224 154.036 12.7465 154.417 12.6056C154.787 12.4647 155.102 12.2588 155.374 12.0095C155.646 11.7602 155.853 11.4675 156.006 11.1315C156.147 10.7955 156.223 10.4378 156.223 10.0584ZM155.081 10.0584C155.081 10.5787 154.917 11.0014 154.58 11.3157C154.243 11.6301 153.775 11.7927 153.176 11.7927H150.999V8.3241H153.176C153.775 8.3241 154.243 8.48669 154.58 8.80103C154.917 9.11537 155.081 9.5381 155.081 10.0584Z" fill="black"/>
<path d="M162.104 13.8521H160.362V10.8171H162.104C162.365 10.8171 162.604 10.8497 162.822 10.9255C163.039 11.0014 163.224 11.1098 163.388 11.2507C163.551 11.3916 163.671 11.5434 163.769 11.7276C163.856 11.9119 163.899 12.1178 163.899 12.3346C163.899 12.5514 163.856 12.7465 163.769 12.9308C163.671 13.1151 163.551 13.2777 163.388 13.4186C163.224 13.5595 163.039 13.657 162.822 13.7329C162.604 13.8088 162.365 13.8521 162.104 13.8521ZM165.042 12.3346C165.042 11.9769 164.977 11.6518 164.835 11.3374C164.694 11.0339 164.498 10.7629 164.247 10.5353C163.997 10.3077 163.682 10.1234 163.322 9.98251C162.963 9.85244 162.55 9.78741 162.104 9.78741H160.362V7.29437H159.22V14.8819H162.104C162.55 14.8819 162.963 14.8168 163.322 14.6759C163.682 14.5458 163.997 14.3616 164.247 14.134C164.498 13.9063 164.694 13.6353 164.835 13.321C164.977 13.0175 165.042 12.6923 165.042 12.3346ZM167.219 14.8819V7.29437H166.076V14.8819H167.219Z" fill="black"/>
<path d="M112.629 27.2696H118.288V28.5703H119.431V26.2399H118.56V19.6821H117.417V26.2399H113.772V19.6821H112.629V27.2696Z" fill="black"/>
<path d="M127.05 19.6821L123.349 25.3727H123.241V19.6821H122.098V27.2696H123.349L127.05 21.579H127.158V27.2696H128.301V19.6821H127.05Z" fill="black"/>
<path d="M135.157 21.037V25.9147C134.711 25.9039 134.308 25.828 133.96 25.6979C133.601 25.5787 133.307 25.4053 133.068 25.1885C132.828 24.9717 132.643 24.7115 132.523 24.4189C132.393 24.1262 132.327 23.8119 132.327 23.4759C132.327 23.1398 132.393 22.8255 132.523 22.5328C132.643 22.2402 132.828 21.9909 133.068 21.7741C133.307 21.5573 133.601 21.3839 133.96 21.2538C134.308 21.1237 134.711 21.0479 135.157 21.037ZM136.3 25.9147V21.037C136.746 21.0479 137.149 21.1237 137.508 21.2538C137.856 21.3839 138.15 21.5573 138.389 21.7741C138.629 21.9909 138.814 22.2402 138.944 22.5328C139.064 22.8255 139.129 23.1398 139.129 23.4759C139.129 23.8119 139.064 24.1262 138.944 24.4189C138.814 24.7115 138.629 24.9717 138.389 25.1885C138.15 25.4053 137.856 25.5787 137.508 25.6979C137.149 25.828 136.746 25.9039 136.3 25.9147ZM136.3 27.7032V26.9444C136.898 26.9336 137.442 26.8252 137.932 26.6301C138.422 26.4458 138.835 26.1857 139.184 25.8713C139.532 25.557 139.804 25.1993 139.989 24.7874C140.174 24.3755 140.272 23.9419 140.272 23.4759C140.272 23.0098 140.174 22.5762 139.989 22.1643C139.804 21.7524 139.532 21.3839 139.184 21.0695C138.835 20.7552 138.422 20.5059 137.932 20.3108C137.442 20.1265 136.898 20.0181 136.3 20.0073V19.2485H135.157V20.0073C134.558 20.0181 134.014 20.1265 133.525 20.3108C133.035 20.5059 132.621 20.7552 132.273 21.0695C131.925 21.3839 131.653 21.7524 131.468 22.1643C131.283 22.5762 131.185 23.0098 131.185 23.4759C131.185 23.9419 131.283 24.3755 131.468 24.7874C131.653 25.1993 131.925 25.557 132.273 25.8713C132.621 26.1857 133.035 26.4458 133.525 26.6301C134.014 26.8252 134.558 26.9336 135.157 26.9444V27.7032H136.3Z" fill="black"/>
<path d="M149.518 22.4461C149.518 22.0668 149.441 21.7091 149.3 21.373C149.147 21.037 148.941 20.7444 148.669 20.4951C148.397 20.2458 148.081 20.0398 147.711 19.8989C147.33 19.758 146.916 19.6821 146.47 19.6821H143.151V27.2696H144.294V25.2101H146.47C146.916 25.2101 147.33 25.1343 147.711 24.9934C148.081 24.8524 148.397 24.6465 148.669 24.3972C148.941 24.1479 149.147 23.8552 149.3 23.5192C149.441 23.1832 149.518 22.8255 149.518 22.4461ZM148.375 22.4461C148.375 22.9664 148.212 23.3891 147.874 23.7035C147.537 24.0178 147.069 24.1804 146.47 24.1804H144.294V20.7118H146.47C147.069 20.7118 147.537 20.8744 147.874 21.1888C148.212 21.5031 148.375 21.9258 148.375 22.4461Z" fill="black"/>
<path d="M160.295 23.4759C160.295 22.9014 160.186 22.3703 159.969 21.8716C159.751 21.373 159.457 20.9395 159.087 20.5601C158.717 20.1916 158.282 19.8989 157.792 19.6821C157.302 19.4653 156.769 19.3569 156.214 19.3569C155.659 19.3569 155.126 19.4653 154.636 19.6821C154.146 19.8989 153.711 20.1916 153.341 20.5601C152.971 20.9395 152.677 21.373 152.459 21.8716C152.242 22.3703 152.133 22.9014 152.133 23.4759C152.133 24.0503 152.242 24.5815 152.459 25.0801C152.677 25.5787 152.971 26.0122 153.341 26.3808C153.711 26.7602 154.146 27.0528 154.636 27.2696C155.126 27.4864 155.659 27.5948 156.214 27.5948C156.769 27.5948 157.302 27.4864 157.792 27.2696C158.282 27.0528 158.717 26.7602 159.087 26.3808C159.457 26.0122 159.751 25.5787 159.969 25.0801C160.186 24.5815 160.295 24.0503 160.295 23.4759ZM153.276 23.4759C153.276 23.0423 153.352 22.6412 153.515 22.2619C153.678 21.8825 153.885 21.5573 154.157 21.2755C154.429 21.0045 154.734 20.7877 155.093 20.6251C155.452 20.4625 155.822 20.3867 156.214 20.3867C156.606 20.3867 156.976 20.4625 157.335 20.6251C157.694 20.7877 157.999 21.0045 158.271 21.2755C158.543 21.5573 158.75 21.8825 158.913 22.2619C159.076 22.6412 159.152 23.0423 159.152 23.4759C159.152 23.9094 159.076 24.3105 158.913 24.6899C158.75 25.0692 158.543 25.3944 158.271 25.6654C157.999 25.9472 157.694 26.164 157.335 26.3266C156.976 26.4892 156.606 26.5651 156.214 26.5651C155.822 26.5651 155.452 26.4892 155.093 26.3266C154.734 26.164 154.429 25.9472 154.157 25.6654C153.885 25.3944 153.678 25.0692 153.515 24.6899C153.352 24.3105 153.276 23.9094 153.276 23.4759Z" fill="black"/>
<path d="M164.38 20.7118H166.502C166.883 20.7118 167.187 20.8094 167.394 20.9937C167.601 21.1779 167.699 21.4164 167.699 21.6874C167.699 21.9909 167.601 22.2402 167.394 22.4245C167.187 22.6196 166.883 22.7171 166.502 22.7171H164.38V20.7118ZM167.046 26.2399H164.38V23.7468H167.046C167.536 23.7468 167.917 23.8661 168.178 24.1045C168.439 24.3538 168.57 24.6465 168.57 24.9934C168.57 25.3511 168.439 25.6437 168.178 25.8822C167.917 26.1206 167.536 26.2399 167.046 26.2399ZM166.502 19.6821H163.237V27.2696H167.046C167.449 27.2696 167.819 27.2046 168.156 27.0853C168.482 26.9661 168.765 26.8035 168.994 26.5976C169.223 26.3916 169.408 26.1532 169.527 25.8713C169.647 25.6004 169.712 25.3077 169.712 24.9934C169.712 24.5598 169.625 24.2129 169.44 23.9636C169.255 23.7143 169.059 23.5301 168.842 23.4C168.591 23.2482 168.297 23.1507 167.971 23.0965V23.0423C168.134 22.9881 168.276 22.8905 168.406 22.7713C168.515 22.6738 168.613 22.5328 168.711 22.3594C168.798 22.186 168.842 21.9584 168.842 21.6874C168.842 21.4164 168.787 21.1563 168.678 20.907C168.559 20.6685 168.406 20.4517 168.2 20.2674C167.993 20.0832 167.753 19.9423 167.47 19.8339C167.177 19.7363 166.861 19.6821 166.502 19.6821Z" fill="black"/>
<path d="M180.381 23.4759C180.381 22.9014 180.272 22.3703 180.055 21.8716C179.837 21.373 179.543 20.9395 179.173 20.5601C178.803 20.1916 178.368 19.8989 177.878 19.6821C177.388 19.4653 176.855 19.3569 176.3 19.3569C175.745 19.3569 175.212 19.4653 174.722 19.6821C174.232 19.8989 173.797 20.1916 173.427 20.5601C173.057 20.9395 172.763 21.373 172.545 21.8716C172.328 22.3703 172.219 22.9014 172.219 23.4759C172.219 24.0503 172.328 24.5815 172.545 25.0801C172.763 25.5787 173.057 26.0122 173.427 26.3808C173.797 26.7602 174.232 27.0528 174.722 27.2696C175.212 27.4864 175.745 27.5948 176.3 27.5948C176.855 27.5948 177.388 27.4864 177.878 27.2696C178.368 27.0528 178.803 26.7602 179.173 26.3808C179.543 26.0122 179.837 25.5787 180.055 25.0801C180.272 24.5815 180.381 24.0503 180.381 23.4759ZM173.361 23.4759C173.361 23.0423 173.438 22.6412 173.601 22.2619C173.764 21.8825 173.971 21.5573 174.243 21.2755C174.515 21.0045 174.82 20.7877 175.179 20.6251C175.538 20.4625 175.908 20.3867 176.3 20.3867C176.692 20.3867 177.062 20.4625 177.421 20.6251C177.78 20.7877 178.085 21.0045 178.357 21.2755C178.629 21.5573 178.836 21.8825 178.999 22.2619C179.162 22.6412 179.238 23.0423 179.238 23.4759C179.238 23.9094 179.162 24.3105 178.999 24.6899C178.836 25.0692 178.629 25.3944 178.357 25.6654C178.085 25.9472 177.78 26.164 177.421 26.3266C177.062 26.4892 176.692 26.5651 176.3 26.5651C175.908 26.5651 175.538 26.4892 175.179 26.3266C174.82 26.164 174.515 25.9472 174.243 25.6654C173.971 25.3944 173.764 25.0692 173.601 24.6899C173.438 24.3105 173.361 23.9094 173.361 23.4759Z" fill="black"/>
<path d="M186.424 18.815C186.653 18.815 186.871 18.7716 187.067 18.6957C187.252 18.6199 187.426 18.5115 187.567 18.3706C187.709 18.2297 187.817 18.0671 187.894 17.872C187.97 17.6877 188.003 17.4709 188.003 17.2433H187.132C187.132 17.4601 187.067 17.6335 186.947 17.7527C186.816 17.8828 186.642 17.9478 186.424 17.9478C186.207 17.9478 186.033 17.8828 185.913 17.7527C185.782 17.6335 185.717 17.4601 185.717 17.2433H184.846C184.846 17.4709 184.89 17.6877 184.966 17.872C185.042 18.0671 185.151 18.2297 185.293 18.3706C185.434 18.5115 185.597 18.6199 185.793 18.6957C185.978 18.7716 186.196 18.815 186.424 18.815ZM188.275 19.6821L184.574 25.3727H184.466V19.6821H183.323V27.2696H184.574L188.275 21.579H188.383V27.2696H189.526V19.6821H188.275Z" fill="black"/>
<path d="M111.976 33.0996H114.533V39.6573H115.676V33.0996H118.234V32.0699H111.976V33.0996Z" fill="black"/>
<path d="M127.263 34.8339C127.263 34.4545 127.187 34.0968 127.046 33.7608C126.893 33.4248 126.687 33.1321 126.415 32.8828C126.143 32.6335 125.827 32.4276 125.457 32.2866C125.076 32.1457 124.662 32.0699 124.216 32.0699H120.897V39.6573H122.04V37.5979H124.216C124.662 37.5979 125.076 37.522 125.457 37.3811C125.827 37.2402 126.143 37.0342 126.415 36.7849C126.687 36.5356 126.893 36.243 127.046 35.907C127.187 35.5709 127.263 35.2132 127.263 34.8339ZM126.121 34.8339C126.121 35.3542 125.958 35.7769 125.62 36.0912C125.283 36.4056 124.815 36.5682 124.216 36.5682H122.04V33.0996H124.216C124.815 33.0996 125.283 33.2622 125.62 33.5765C125.958 33.8909 126.121 34.3136 126.121 34.8339Z" fill="black"/>
<path d="M131.045 36.8391L131.949 33.0996H133.527L134.419 36.8391H131.045ZM131.024 32.0699L129.174 39.6573H130.371L130.795 37.8689H134.669L135.105 39.6573H136.302L134.452 32.0699H131.024Z" fill="black"/>
<path d="M139.08 32.0699V39.6573H140.223V36.4056H144.087V39.6573H145.229V32.0699H144.087V35.3758H140.223V32.0699H139.08Z" fill="black"/>
<path d="M152.141 39.9825C152.642 39.9825 153.099 39.9067 153.512 39.7657C153.926 39.614 154.285 39.4189 154.6 39.1696C154.916 38.9311 155.177 38.6601 155.384 38.3566C155.591 38.0531 155.743 37.7496 155.841 37.4353L154.698 37.2727C154.6 37.4895 154.481 37.6954 154.328 37.9014C154.176 38.1073 153.991 38.2808 153.784 38.4325C153.577 38.5951 153.338 38.7143 153.066 38.8119C152.794 38.9094 152.478 38.9528 152.141 38.9528C151.771 38.9528 151.412 38.8769 151.074 38.7143C150.737 38.5517 150.432 38.335 150.171 38.0531C149.91 37.7822 149.703 37.457 149.551 37.0776C149.387 36.6982 149.311 36.2972 149.311 35.8636C149.311 35.43 149.387 35.029 149.551 34.6496C149.703 34.2702 149.91 33.945 150.171 33.6632C150.432 33.3922 150.737 33.1755 151.074 33.0129C151.412 32.8503 151.771 32.7744 152.141 32.7744C152.457 32.7744 152.739 32.8178 152.99 32.9045C153.24 32.9912 153.469 33.0996 153.665 33.2405C153.85 33.3814 154.013 33.544 154.154 33.7283C154.296 33.9125 154.405 34.1076 154.481 34.2919L155.623 34.1293C155.526 33.8367 155.384 33.544 155.188 33.2513C154.992 32.9695 154.753 32.7202 154.459 32.4926C154.165 32.265 153.817 32.0915 153.436 31.9506C153.055 31.8097 152.62 31.7447 152.141 31.7447C151.608 31.7447 151.107 31.8531 150.628 32.0699C150.149 32.2866 149.725 32.5793 149.366 32.9478C148.996 33.3272 148.702 33.7608 148.495 34.2594C148.277 34.758 148.169 35.2891 148.169 35.8636C148.169 36.4381 148.277 36.9692 148.495 37.4678C148.702 37.9664 148.996 38.4 149.366 38.7685C149.725 39.1479 150.149 39.4406 150.628 39.6573C151.107 39.8741 151.608 39.9825 152.141 39.9825Z" fill="black"/>
<path d="M162.204 33.4248V38.3024C161.758 38.2916 161.355 38.2157 161.007 38.0857C160.648 37.9664 160.354 37.793 160.114 37.5762C159.875 37.3594 159.69 37.0993 159.57 36.8066C159.44 36.514 159.374 36.1996 159.374 35.8636C159.374 35.5276 159.44 35.2132 159.57 34.9206C159.69 34.6279 159.875 34.3786 160.114 34.1618C160.354 33.9451 160.648 33.7716 161.007 33.6415C161.355 33.5115 161.758 33.4356 162.204 33.4248ZM163.347 38.3024V33.4248C163.793 33.4356 164.195 33.5115 164.555 33.6415C164.903 33.7716 165.197 33.9451 165.436 34.1618C165.676 34.3786 165.861 34.6279 165.991 34.9206C166.111 35.2132 166.176 35.5276 166.176 35.8636C166.176 36.1996 166.111 36.514 165.991 36.8066C165.861 37.0993 165.676 37.3594 165.436 37.5762C165.197 37.793 164.903 37.9664 164.555 38.0857C164.195 38.2157 163.793 38.2916 163.347 38.3024ZM163.347 40.0909V39.3322C163.945 39.3213 164.489 39.2129 164.979 39.0178C165.469 38.8336 165.882 38.5734 166.231 38.2591C166.579 37.9447 166.851 37.587 167.036 37.1752C167.221 36.7633 167.319 36.3297 167.319 35.8636C167.319 35.3975 167.221 34.9639 167.036 34.552C166.851 34.1402 166.579 33.7716 166.231 33.4573C165.882 33.1429 165.469 32.8936 164.979 32.6985C164.489 32.5143 163.945 32.4059 163.347 32.395V31.6363H162.204V32.395C161.605 32.4059 161.061 32.5143 160.571 32.6985C160.082 32.8936 159.668 33.1429 159.32 33.4573C158.972 33.7716 158.7 34.1402 158.515 34.552C158.329 34.9639 158.232 35.3975 158.232 35.8636C158.232 36.3297 158.329 36.7633 158.515 37.1752C158.7 37.587 158.972 37.9447 159.32 38.2591C159.668 38.5734 160.082 38.8336 160.571 39.0178C161.061 39.2129 161.605 39.3213 162.204 39.3322V40.0909H163.347Z" fill="black"/>
<path d="M177.979 35.8636C177.979 35.2891 177.87 34.758 177.653 34.2594C177.435 33.7608 177.141 33.3272 176.771 32.9478C176.401 32.5793 175.966 32.2866 175.476 32.0699C174.986 31.8531 174.453 31.7447 173.898 31.7447C173.343 31.7447 172.81 31.8531 172.32 32.0699C171.83 32.2866 171.395 32.5793 171.025 32.9478C170.655 33.3272 170.361 33.7608 170.143 34.2594C169.926 34.758 169.817 35.2891 169.817 35.8636C169.817 36.4381 169.926 36.9692 170.143 37.4678C170.361 37.9664 170.655 38.4 171.025 38.7685C171.395 39.1479 171.83 39.4406 172.32 39.6573C172.81 39.8741 173.343 39.9825 173.898 39.9825C174.453 39.9825 174.986 39.8741 175.476 39.6573C175.966 39.4406 176.401 39.1479 176.771 38.7685C177.141 38.4 177.435 37.9664 177.653 37.4678C177.87 36.9692 177.979 36.4381 177.979 35.8636ZM170.96 35.8636C170.96 35.43 171.036 35.029 171.199 34.6496C171.362 34.2702 171.569 33.945 171.841 33.6632C172.113 33.3922 172.418 33.1755 172.777 33.0129C173.136 32.8503 173.506 32.7744 173.898 32.7744C174.29 32.7744 174.66 32.8503 175.019 33.0129C175.378 33.1755 175.683 33.3922 175.955 33.6632C176.227 33.945 176.434 34.2702 176.597 34.6496C176.76 35.029 176.836 35.43 176.836 35.8636C176.836 36.2972 176.76 36.6982 176.597 37.0776C176.434 37.457 176.227 37.7822 175.955 38.0531C175.683 38.335 175.378 38.5517 175.019 38.7143C174.66 38.8769 174.29 38.9528 173.898 38.9528C173.506 38.9528 173.136 38.8769 172.777 38.7143C172.418 38.5517 172.113 38.335 171.841 38.0531C171.569 37.7822 171.362 37.457 171.199 37.0776C171.036 36.6982 170.96 36.2972 170.96 35.8636Z" fill="black"/>
<path d="M187.287 34.8339C187.287 34.4545 187.211 34.0968 187.07 33.7608C186.917 33.4248 186.711 33.1321 186.439 32.8828C186.167 32.6335 185.851 32.4276 185.481 32.2866C185.1 32.1457 184.686 32.0699 184.24 32.0699H180.921V39.6573H182.064V37.5979H184.24C184.686 37.5979 185.1 37.522 185.481 37.3811C185.851 37.2402 186.167 37.0342 186.439 36.7849C186.711 36.5356 186.917 36.243 187.07 35.907C187.211 35.5709 187.287 35.2132 187.287 34.8339ZM186.145 34.8339C186.145 35.3542 185.981 35.7769 185.644 36.0912C185.307 36.4056 184.839 36.5682 184.24 36.5682H182.064V33.0996H184.24C184.839 33.0996 185.307 33.2622 185.644 33.5765C185.981 33.8909 186.145 34.3136 186.145 34.8339Z" fill="black"/>
<path d="M194.202 37.0017L196.868 33.6957H196.977V39.6573H198.119V32.0699H196.868L194.202 35.3758L191.535 32.0699H190.284V39.6573H191.426V33.6957H191.535L194.202 37.0017Z" fill="black"/>
<path d="M202.77 36.8391L203.674 33.0996H205.252L206.144 36.8391H202.77ZM202.749 32.0699L200.898 39.6573H202.096L202.52 37.8689H206.394L206.83 39.6573H208.027L206.177 32.0699H202.749Z" fill="black"/>
<path d="M210.805 39.6573H216.465V40.9581H217.607V38.6276H216.737V32.0699H215.594V38.6276H211.948V32.0699H210.805V39.6573Z" fill="black"/>
<path d="M225.226 32.0699L221.526 37.7605H221.417V32.0699H220.274V39.6573H221.526L225.226 33.9667H225.335V39.6573H226.478V32.0699H225.226Z" fill="black"/>
<path d="M234.748 32.0699L231.048 37.7605H230.939V32.0699H229.797V39.6573H231.048L234.748 33.9667H234.857V39.6573H236V32.0699H234.748Z" fill="black"/>
<path d="M48.9808 11.1736C48.2706 11.1609 47.5673 11.2916 46.9122 11.5554C46.5715 11.6926 46.3729 12.0377 46.3729 12.4049V31.4513C46.3729 31.5344 46.3056 31.6017 46.2225 31.6017C46.1394 31.6017 46.072 31.5344 46.072 31.4513V20.1347C46.072 20.0234 45.9818 19.9362 45.8714 19.95C45.8259 19.9557 45.7804 19.9614 45.7348 19.9644C45.6995 19.9668 45.6708 19.938 45.6708 19.9026C45.6708 19.8651 45.6386 19.8356 45.6012 19.8389C44.5374 19.9331 43.693 20.1382 43.3759 20.6675C43.3126 20.7731 43.2501 20.881 43.1928 20.99C43.1263 21.1167 43.0925 21.2592 43.0964 21.4044V31.9695C43.0964 32.1357 42.9617 32.2704 42.7955 32.2704H42.6618C42.5694 32.2704 42.4946 32.3452 42.4946 32.4376C42.4946 32.5299 42.4197 32.6047 42.3274 32.6047H42.1937C42.0275 32.6047 41.8928 32.7395 41.8928 32.9056V34.3935C41.8928 34.4581 41.8404 34.5105 41.7757 34.5105C41.7111 34.5105 41.6587 34.5629 41.6587 34.6275V35.0287C41.6587 35.0564 41.6363 35.0789 41.6086 35.0789C41.5809 35.0789 41.5584 35.1013 41.5584 35.129V36.6001C41.5584 36.7571 41.4312 36.8843 41.2742 36.8843C41.1173 36.8843 40.9901 36.7571 40.9901 36.6001V32.7579C40.9901 32.7229 40.9844 32.6881 40.9733 32.6549L40.9714 32.649C40.9616 32.6197 40.9566 32.589 40.9566 32.5581V32.3221C40.9566 32.2936 40.9335 32.2704 40.9049 32.2704C40.8776 32.2704 40.855 32.2492 40.8533 32.2219L40.8229 31.7355L40.8 31.4613C40.7933 31.3807 40.8563 31.3148 40.8563 31.2339C40.8563 31.2073 40.8457 31.1818 40.8269 31.163C40.8081 31.1442 40.7826 31.1336 40.756 31.1336C40.7294 31.1336 40.7039 31.1442 40.6851 31.163C40.6663 31.1818 40.6557 31.2073 40.6557 31.2339C40.6557 31.3122 40.7188 31.3792 40.7123 31.4572L40.6891 31.7355L40.6587 32.2219C40.657 32.2492 40.6344 32.2704 40.6071 32.2704C40.5786 32.2704 40.5554 32.2936 40.5554 32.3221V32.3373C40.5554 32.3742 40.5255 32.4041 40.4885 32.4041H40.2925C40.2346 32.4041 40.1876 32.3572 40.1876 32.2992C40.1876 32.2608 40.1667 32.2255 40.133 32.2071L39.8808 32.0696C39.8408 32.0478 39.796 32.0364 39.7504 32.0364C39.7081 32.0364 39.6664 32.0462 39.6286 32.0651L39.342 32.2084C39.307 32.2259 39.2849 32.2617 39.2849 32.3008C39.2849 32.3579 39.2387 32.4041 39.1816 32.4041H38.984C38.9471 32.4041 38.9171 32.3742 38.9171 32.3373V32.3221C38.9171 32.2936 38.894 32.2704 38.8654 32.2704C38.8381 32.2704 38.8155 32.2492 38.8138 32.2219L38.7834 31.7355L38.7606 31.4613C38.7538 31.3807 38.8168 31.3148 38.8168 31.2339C38.8168 31.2073 38.8063 31.1818 38.7875 31.163C38.7687 31.1442 38.7431 31.1336 38.7165 31.1336C38.6899 31.1336 38.6644 31.1442 38.6456 31.163C38.6268 31.1818 38.6162 31.2073 38.6162 31.2339C38.6162 31.3122 38.6794 31.3792 38.6729 31.4572L38.6497 31.7355L38.6173 32.2532C38.6167 32.2625 38.6241 32.2704 38.6335 32.2704C38.6424 32.2704 38.6497 32.2776 38.6497 32.2866V32.5581C38.6497 32.589 38.6447 32.6197 38.6349 32.649L38.633 32.6549C38.6219 32.6881 38.6162 32.7229 38.6162 32.7579V34.1427C38.6162 34.2904 38.4965 34.4102 38.3488 34.4102C38.201 34.4102 38.0813 34.2904 38.0813 34.1427V30.0805C38.0813 30.0712 38.0888 30.0638 38.098 30.0638C38.1072 30.0638 38.1147 30.0563 38.1147 30.047V29.532C38.1147 29.4933 38.0834 29.4619 38.0447 29.4619C38.0086 29.4619 37.9784 29.4345 37.975 29.3985L37.9141 28.7598L37.8922 28.4313C37.8849 28.3214 37.981 28.2347 37.981 28.1246C37.981 28.0891 37.9669 28.0551 37.9418 28.03C37.9167 28.0049 37.8827 27.9909 37.8473 27.9909C37.8118 27.9909 37.7778 28.0049 37.7527 28.03C37.7276 28.0551 37.7135 28.0891 37.7135 28.1246C37.7135 28.2327 37.8091 28.3285 37.8019 28.4364L37.7804 28.7598L37.7196 29.3985C37.7161 29.4345 37.6859 29.4619 37.6498 29.4619C37.6111 29.4619 37.5798 29.4933 37.5798 29.532V29.6793C37.5798 29.7993 37.4825 29.8966 37.3625 29.8966H37.2454C37.1347 29.8966 37.0448 29.8068 37.0448 29.696V29.6626C37.0448 29.5702 36.97 29.4954 36.8777 29.4954C36.7853 29.4954 36.7105 29.4205 36.7105 29.3282V26.2033C36.7105 26.1934 36.7025 26.1854 36.6926 26.1854C36.6837 26.1854 36.6761 26.1789 36.6749 26.17L36.6462 25.9691C36.6445 25.9573 36.6436 25.9454 36.6436 25.9335V25.8078C36.6436 25.7927 36.6496 25.7782 36.6604 25.7675C36.6711 25.7568 36.6789 25.7406 36.669 25.7291C36.6685 25.7284 36.6679 25.7278 36.6673 25.7271C36.6667 25.7265 36.666 25.7259 36.6654 25.7254C36.6538 25.7155 36.6376 25.7234 36.6269 25.7341L36.6227 25.7383C36.6147 25.7463 36.6091 25.7612 36.611 25.7724C36.615 25.7956 36.6436 25.8033 36.6436 25.8268V25.9403C36.6436 25.9477 36.6431 25.955 36.6421 25.9624L36.6124 26.17C36.6111 26.1789 36.6036 26.1854 36.5947 26.1854C36.5848 26.1854 36.5768 26.1934 36.5768 26.2033V26.269C36.5768 26.2967 36.5543 26.3192 36.5266 26.3192C36.4989 26.3192 36.4765 26.2967 36.4765 26.269V26.2523C36.4765 26.2154 36.4465 26.1854 36.4096 26.1854H36.3594C36.3317 26.1854 36.3093 26.163 36.3093 26.1353C36.3093 26.1076 36.2868 26.0851 36.2591 26.0851H36.191C36.1278 26.0851 36.0756 26.0312 36.0993 25.9725C36.105 25.9584 36.1092 25.9435 36.1092 25.9283C36.1093 25.8446 36.0899 25.762 36.0524 25.687C36.0201 25.6223 35.9752 25.5651 35.9205 25.5184C35.893 25.4949 35.8747 25.4617 35.8747 25.4256V25.3675C35.8747 25.3391 35.8517 25.3161 35.8233 25.3161C35.7959 25.3161 35.7733 25.2946 35.772 25.2672L35.674 23.2098L35.6092 22.1392C35.6083 22.1247 35.6235 22.1146 35.6365 22.1211L35.6424 22.1241C35.6606 22.1332 35.6774 22.1098 35.6631 22.0955C35.6532 22.0856 35.6579 22.0686 35.6709 22.0637C35.7232 22.0441 35.7682 22.0085 35.7995 21.9616C35.8145 21.9392 35.8258 21.9147 35.8334 21.8893C35.8557 21.8139 35.8527 21.7293 35.8245 21.6559C35.8185 21.6403 35.8109 21.6251 35.8019 21.6107C35.8001 21.6077 35.7981 21.6047 35.7961 21.6018C35.7878 21.5897 35.7746 21.6051 35.7812 21.6183C35.805 21.6658 35.8142 21.7193 35.8078 21.7721C35.8019 21.8445 35.7727 21.9131 35.7244 21.9674C35.7087 21.9851 35.6912 22.001 35.6723 22.0148C35.5945 22.0718 35.4849 22.0786 35.4045 22.0254C35.3835 22.0114 35.3641 21.9947 35.3471 21.9755C35.2974 21.9196 35.2708 21.8469 35.2728 21.7721C35.2728 21.7202 35.2849 21.669 35.3081 21.6226C35.3161 21.6066 35.3008 21.5902 35.2908 21.605C35.2887 21.6081 35.2866 21.6113 35.2846 21.6144C35.2551 21.6617 35.2394 21.7164 35.2394 21.7721C35.2405 21.8362 35.2599 21.8987 35.2955 21.952C35.326 21.9978 35.3673 22.0352 35.4155 22.0611C35.427 22.0673 35.43 22.0831 35.4207 22.0923C35.4058 22.1072 35.4233 22.1315 35.4422 22.1221L35.4441 22.1211C35.4571 22.1146 35.4723 22.1247 35.4715 22.1392L35.4066 23.2098L35.3086 25.2672C35.3073 25.2946 35.2847 25.3161 35.2573 25.3161C35.229 25.3161 35.206 25.3391 35.206 25.3675V25.4276C35.206 25.4627 35.189 25.4952 35.1631 25.5188C35.1099 25.5672 35.066 25.6251 35.0337 25.6897C34.9931 25.771 34.9719 25.8605 34.9719 25.9514C34.9719 26.0182 34.9719 26.0851 35.0054 26.0851H34.8215C34.7938 26.0851 34.7713 26.1076 34.7713 26.1353C34.7713 26.163 34.7489 26.1854 34.7212 26.1854H34.671C34.6341 26.1854 34.6042 26.2154 34.6042 26.2523V26.269C34.6042 26.2967 34.5817 26.3192 34.554 26.3192C34.5263 26.3192 34.5039 26.2967 34.5039 26.269V26.2033C34.5039 26.1934 34.4958 26.1854 34.486 26.1854C34.477 26.1854 34.4695 26.1789 34.4682 26.17L34.4395 25.9691C34.4378 25.9573 34.437 25.9454 34.437 25.9335V25.8078C34.437 25.7927 34.443 25.7782 34.4537 25.7675C34.4644 25.7568 34.4722 25.7406 34.4624 25.7291C34.4618 25.7284 34.4613 25.7278 34.4606 25.7271C34.4544 25.7209 34.4459 25.7173 34.437 25.7173C34.4175 25.7201 34.3991 25.7276 34.3834 25.7393C34.3744 25.746 34.3691 25.7612 34.371 25.7723C34.3749 25.7956 34.4036 25.8033 34.4036 25.8269V25.9403C34.4036 25.9477 34.403 25.955 34.402 25.9624L34.3723 26.17C34.3711 26.1789 34.3635 26.1854 34.3546 26.1854C34.3447 26.1854 34.3367 26.1934 34.3367 26.2033V29.3449C34.3367 29.4465 34.2544 29.5288 34.1528 29.5288C34.0512 29.5288 33.9689 29.6111 33.9689 29.7127V29.7294C33.9689 29.8402 33.8791 29.93 33.7683 29.93H33.6513C33.5313 29.93 33.434 29.8327 33.434 29.7127V29.5654C33.434 29.5267 33.4026 29.4954 33.3639 29.4954C33.3278 29.4954 33.2976 29.4679 33.2942 29.432L33.2334 28.7933L33.2115 28.4647C33.2041 28.3548 33.3002 28.2682 33.3002 28.158C33.3002 28.1226 33.2861 28.0885 33.2611 28.0635C33.236 28.0384 33.202 28.0243 33.1665 28.0243C33.131 28.0243 33.097 28.0384 33.0719 28.0635C33.0469 28.0885 33.0328 28.1226 33.0328 28.158C33.0328 28.2662 33.1284 28.362 33.1212 28.4699L33.0996 28.7933L33.0358 29.4637C33.0341 29.4817 33.019 29.4954 33.0009 29.4954C32.9816 29.4954 32.9659 29.5111 32.9659 29.5304V30.0805C32.9659 30.0897 32.9734 30.0972 32.9826 30.0972C32.9918 30.0972 32.9993 30.1047 32.9993 30.1139V33.8752C32.9993 34.1891 32.7449 34.4436 32.431 34.4436C32.117 34.4436 31.8626 34.1891 31.8626 33.8752V32.7913C31.8626 32.7563 31.8569 32.7215 31.8459 32.6883L31.8439 32.6825C31.8341 32.6531 31.8291 32.6224 31.8291 32.5915V32.3556C31.8291 32.327 31.806 32.3038 31.7774 32.3038C31.7501 32.3038 31.7275 32.2826 31.7258 32.2553L31.6954 31.7689L31.6726 31.4947C31.6658 31.4141 31.7288 31.3482 31.7288 31.2674C31.7288 31.2408 31.7183 31.2153 31.6995 31.1965C31.6807 31.1776 31.6551 31.1671 31.6285 31.1671C31.6019 31.1671 31.5764 31.1776 31.5576 31.1965C31.5388 31.2153 31.5282 31.2408 31.5282 31.2674C31.5282 31.3456 31.5914 31.4126 31.5849 31.4906L31.5617 31.7689L31.5313 32.2553C31.5296 32.2826 31.507 32.3038 31.4797 32.3038C31.4511 32.3038 31.4279 32.327 31.4279 32.3556V32.3707C31.4279 32.4076 31.398 32.4376 31.3611 32.4376H31.186C31.1165 32.4376 31.0602 32.3812 31.0602 32.3117C31.0602 32.2656 31.035 32.2232 30.9946 32.2012L30.7217 32.0524C30.7025 32.0419 30.6809 32.0364 30.659 32.0364C30.637 32.0364 30.6154 32.0419 30.5962 32.0524L30.3124 32.2071C30.2787 32.2255 30.2577 32.2608 30.2577 32.2992C30.2577 32.3572 30.2108 32.4041 30.1528 32.4041H29.9568C29.9199 32.4041 29.89 32.3742 29.89 32.3373V32.3221C29.89 32.2936 29.8668 32.2704 29.8383 32.2704C29.8109 32.2704 29.7883 32.2492 29.7866 32.2219L29.7562 31.7355L29.7334 31.4613C29.7267 31.3807 29.7897 31.3148 29.7897 31.2339C29.7897 31.2073 29.7791 31.1818 29.7603 31.163C29.7415 31.1442 29.716 31.1336 29.6894 31.1336C29.6628 31.1336 29.6373 31.1442 29.6184 31.163C29.5996 31.1818 29.5891 31.2073 29.5891 31.2339C29.5891 31.3122 29.6522 31.3792 29.6457 31.4572L29.6225 31.7355L29.5921 32.2219C29.5904 32.2492 29.5678 32.2704 29.5405 32.2704C29.5119 32.2704 29.4888 32.2936 29.4888 32.3221V32.5581C29.4888 32.589 29.4838 32.6197 29.474 32.649L29.472 32.6549C29.461 32.6881 29.4553 32.7229 29.4553 32.7579V38.3671C29.4553 38.4345 29.4007 38.4891 29.3333 38.4891C29.2854 38.4891 29.242 38.5171 29.2222 38.5606L29.1044 38.8199C29.0965 38.8372 29.1092 38.8569 29.1282 38.8569C29.1427 38.8569 29.1544 38.8686 29.1544 38.8831V39.3751C29.1544 39.4767 29.0721 39.559 28.9705 39.559H28.8843C28.8304 39.559 28.7866 39.6027 28.7866 39.6566C28.7866 39.6799 28.7783 39.7025 28.7631 39.7202L28.4334 40.1048C28.403 40.1404 28.3585 40.1608 28.3117 40.1608C28.2232 40.1608 28.1514 40.2326 28.1514 40.3211V40.8964C28.1514 40.9333 28.1215 40.9632 28.0845 40.9632C28.0476 40.9632 28.0177 40.9932 28.0177 41.0301V41.1471C28.0177 41.1933 27.9802 41.2307 27.9341 41.2307C27.8879 41.2307 27.8505 41.2681 27.8505 41.3143V42.0164C27.8505 42.1734 27.7233 42.3006 27.5663 42.3006H27.3991C27.3345 42.3006 27.2821 42.353 27.2821 42.4176V42.4845C27.2821 42.5122 27.3046 42.5346 27.3323 42.5346C27.36 42.5346 27.3824 42.5571 27.3824 42.5848V43.1489C27.3824 43.4351 27.184 43.6835 26.9052 43.7483C16.6359 46.1339 7.53979 49.0049 0 52.2974C24.574 44.4404 58.1082 39.5924 95.0862 39.5924C97.9142 39.5924 100.504 39.6189 103.256 39.672C103.817 39.6828 104.279 39.2297 104.277 38.6678L104.247 29.8966V29.696L103.98 25.8511V25.1657C103.98 25.0457 104.077 24.9484 104.197 24.9484H104.214C104.324 24.9484 104.414 24.8585 104.414 24.7478V24.6642C104.414 24.5995 104.362 24.5472 104.297 24.5472C104.233 24.5472 104.18 24.4948 104.18 24.4301V24.0791C104.18 24.0421 104.21 24.0122 104.247 24.0122C104.284 24.0122 104.314 23.9823 104.314 23.9453V23.7816C104.314 23.6689 104.223 23.5776 104.11 23.5776C104 23.5776 103.91 23.4904 103.906 23.3805L103.812 20.6354V20.3178C103.812 20.3085 103.82 20.301 103.829 20.301C103.838 20.301 103.846 20.2936 103.846 20.2843V19.95C103.846 19.9223 103.823 19.8998 103.796 19.8998C103.768 19.8998 103.746 19.8774 103.746 19.8497V19.6156C103.746 19.5879 103.768 19.5655 103.796 19.5655C103.823 19.5655 103.846 19.543 103.846 19.5153V19.2154C103.846 19.1872 103.823 19.1643 103.795 19.1643C103.767 19.1643 103.745 19.1426 103.744 19.1151L103.651 16.6926C103.648 16.6183 103.707 16.5564 103.782 16.5564C103.854 16.5564 103.913 16.4977 103.913 16.4253V16.289C103.913 16.252 103.943 16.2221 103.98 16.2221C104.017 16.2221 104.047 16.1922 104.047 16.1552V15.4364C104.047 15.4087 104.024 15.3862 103.996 15.3862C103.969 15.3862 103.946 15.3638 103.946 15.3361V15.2692C103.946 15.2415 103.924 15.2191 103.896 15.2191C103.868 15.2191 103.846 15.1966 103.846 15.1689V14.5337C103.846 14.506 103.868 14.4835 103.896 14.4835C103.924 14.4835 103.946 14.4611 103.946 14.4334V14.1492C103.946 14.0753 103.886 14.0154 103.812 14.0154C103.739 14.0154 103.679 13.9556 103.679 13.8817V13.2966C103.679 13.2689 103.701 13.2465 103.729 13.2465C103.757 13.2465 103.779 13.224 103.779 13.1963V12.9288C103.779 12.9011 103.757 12.8787 103.729 12.8787C103.701 12.8787 103.679 12.8562 103.679 12.8285V12.093C103.679 12.0653 103.701 12.0428 103.729 12.0428C103.757 12.0428 103.779 12.0204 103.779 11.9927V11.7252C103.779 11.6975 103.757 11.6751 103.729 11.6751C103.701 11.6751 103.679 11.6526 103.679 11.6249V10.9228C103.679 10.8397 103.746 10.7724 103.829 10.7724C103.912 10.7724 103.98 10.705 103.98 10.6219V10.204C103.98 10.167 104.01 10.1371 104.047 10.1371C104.083 10.1371 104.113 10.1072 104.113 10.0702V9.46842C104.113 9.44996 104.098 9.43499 104.08 9.43499C104.061 9.43499 104.047 9.42003 104.047 9.40156V8.54899C104.047 8.42897 103.949 8.33167 103.829 8.33167C103.709 8.33167 103.612 8.23437 103.612 8.11435V7.34537C103.612 7.31767 103.634 7.29522 103.662 7.29522C103.69 7.29522 103.712 7.27276 103.712 7.24507V7.22835C103.712 7.19142 103.682 7.16148 103.645 7.16148H103.612C103.556 7.16148 103.512 7.11658 103.512 7.06118V5.5065C103.512 5.4788 103.534 5.45635 103.562 5.45635C103.589 5.45635 103.612 5.4339 103.612 5.4062V5.38948C103.612 5.35255 103.582 5.32261 103.545 5.32261H103.512C103.456 5.32261 103.411 5.27771 103.411 5.22232V3.75121C103.411 3.71429 103.441 3.68435 103.478 3.68435H103.512C103.53 3.68435 103.545 3.66938 103.545 3.65091C103.545 3.63245 103.53 3.61748 103.512 3.61748H103.461C103.415 3.61748 103.378 3.58006 103.378 3.53389V2.51416C103.378 2.49569 103.393 2.48073 103.411 2.48073C103.43 2.48073 103.445 2.46576 103.445 2.44729V2.39714C103.445 2.36944 103.422 2.34699 103.395 2.34699C103.367 2.34699 103.344 2.32454 103.344 2.29684V1.31054C103.344 1.29207 103.359 1.2771 103.378 1.2771C103.396 1.2771 103.411 1.26213 103.411 1.24366V1.19352C103.411 1.16582 103.389 1.14337 103.361 1.14337C103.333 1.14337 103.311 1.12091 103.311 1.09321V0.374385C103.311 0.35592 103.326 0.340951 103.344 0.340951C103.363 0.340951 103.378 0.325982 103.378 0.307516V0.27408C103.378 0.237151 103.348 0.207214 103.311 0.207214C103.274 0.207214 103.244 0.237151 103.244 0.27408V0.307519C103.244 0.325983 103.259 0.340951 103.278 0.340951C103.296 0.340951 103.311 0.355919 103.311 0.374382V1.04307C103.311 1.08 103.281 1.10993 103.244 1.10993C103.207 1.10993 103.177 1.13987 103.177 1.1768V1.24367C103.177 1.26213 103.192 1.2771 103.211 1.2771C103.229 1.2771 103.244 1.29207 103.244 1.31054V2.29683C103.244 2.32453 103.222 2.34699 103.194 2.34699C103.166 2.34699 103.144 2.36944 103.144 2.39714V2.44729C103.144 2.46575 103.159 2.48073 103.177 2.48073C103.196 2.48073 103.211 2.4957 103.211 2.51416V3.46703C103.211 3.51319 103.173 3.55061 103.127 3.55061H103.11C103.073 3.55061 103.044 3.58055 103.044 3.61748C103.044 3.65441 103.073 3.68435 103.11 3.68435C103.147 3.68435 103.177 3.71429 103.177 3.75122V5.18888C103.177 5.24427 103.132 5.28918 103.077 5.28918H103.044C103.007 5.28918 102.977 5.31912 102.977 5.35605V5.37276C102.977 5.40046 102.999 5.42292 103.027 5.42292C103.054 5.42292 103.077 5.44537 103.077 5.47307V7.01103C103.077 7.07566 103.025 7.12805 102.96 7.12805H102.91C102.873 7.12805 102.843 7.15799 102.843 7.19492V7.21164C102.843 7.23933 102.865 7.26178 102.893 7.26178C102.921 7.26178 102.943 7.28424 102.943 7.31193V8.08092C102.943 8.20094 102.846 8.29824 102.726 8.29824C102.606 8.29824 102.509 8.39553 102.509 8.51556V9.36812C102.509 9.38659 102.494 9.40156 102.475 9.40156C102.457 9.40156 102.442 9.41653 102.442 9.435V10.0368C102.442 10.0737 102.472 10.1037 102.509 10.1037C102.545 10.1037 102.575 10.1336 102.575 10.1705V10.5885C102.575 10.6716 102.643 10.7389 102.726 10.7389C102.809 10.7389 102.876 10.8063 102.876 10.8894V11.5915C102.876 11.6192 102.854 11.6416 102.826 11.6416C102.798 11.6416 102.776 11.6641 102.776 11.6918V11.9593C102.776 11.987 102.798 12.0094 102.826 12.0094C102.854 12.0094 102.876 12.0319 102.876 12.0596V12.7951C102.876 12.8228 102.854 12.8453 102.826 12.8453C102.798 12.8453 102.776 12.8677 102.776 12.8954V13.1629C102.776 13.1906 102.798 13.213 102.826 13.213C102.854 13.213 102.876 13.2355 102.876 13.2632V13.865C102.876 13.9296 102.824 13.982 102.759 13.982C102.695 13.982 102.642 14.0344 102.642 14.099V14.3999C102.642 14.4276 102.665 14.4501 102.692 14.4501C102.72 14.4501 102.743 14.4725 102.743 14.5002V15.1355C102.743 15.1632 102.72 15.1856 102.692 15.1856C102.665 15.1856 102.642 15.2081 102.642 15.2358V15.2859C102.642 15.3229 102.612 15.3528 102.575 15.3528C102.538 15.3528 102.509 15.3827 102.509 15.4197V16.1218C102.509 16.1587 102.538 16.1887 102.575 16.1887C102.612 16.1887 102.642 16.2186 102.642 16.2555V16.3918C102.642 16.4643 102.701 16.523 102.773 16.523C102.848 16.523 102.907 16.5848 102.905 16.6592L102.811 19.0817C102.81 19.1091 102.788 19.1308 102.76 19.1308C102.732 19.1308 102.709 19.1537 102.709 19.182V19.4819C102.709 19.5096 102.732 19.5321 102.759 19.5321C102.787 19.5321 102.809 19.5545 102.809 19.5822V19.8162C102.809 19.8439 102.787 19.8664 102.759 19.8664C102.732 19.8664 102.709 19.8888 102.709 19.9165V20.2509C102.709 20.2601 102.717 20.2676 102.726 20.2676C102.735 20.2676 102.743 20.2751 102.743 20.2843V20.6019L102.649 23.3471C102.645 23.457 102.555 23.5441 102.445 23.5441C102.332 23.5441 102.241 23.6355 102.241 23.7482V23.9119C102.241 23.9488 102.271 23.9788 102.308 23.9788C102.345 23.9788 102.375 24.0087 102.375 24.0456V24.4469C102.375 24.5022 102.33 24.5472 102.275 24.5472C102.219 24.5472 102.174 24.5921 102.174 24.6475V24.7478C102.174 24.8585 102.264 24.9484 102.375 24.9484H102.392C102.512 24.9484 102.609 25.0457 102.609 25.1657V25.8511L102.475 29.696V29.8966L102.411 31.9908C102.41 32.0279 102.37 32.0519 102.334 32.0439C102.303 32.0372 102.278 32.0645 102.282 32.0957L102.33 32.5051C102.336 32.5581 102.294 32.6047 102.241 32.6047C102.188 32.6047 102.146 32.5581 102.153 32.5051L102.179 32.2811C102.19 32.1823 102.073 32.1029 101.974 32.1029C101.874 32.1029 101.757 32.1822 101.768 32.2811L101.789 32.4553C101.798 32.5349 101.736 32.6047 101.656 32.6047C101.576 32.6047 101.514 32.5349 101.523 32.4553L101.544 32.2811C101.555 32.1823 101.438 32.1029 101.338 32.1029C101.239 32.1029 101.121 32.1823 101.133 32.2811L101.159 32.5051C101.166 32.5581 101.124 32.6047 101.071 32.6047C101.018 32.6047 100.976 32.5581 100.982 32.5051L101.009 32.2811C101.02 32.1823 100.903 32.1029 100.803 32.1029C100.704 32.1029 100.587 32.1822 100.598 32.2811L100.625 32.5051C100.631 32.5581 100.589 32.6047 100.536 32.6047C100.483 32.6047 100.441 32.5581 100.447 32.5051L100.474 32.2811C100.485 32.1823 100.368 32.1029 100.268 32.1029C100.169 32.1029 100.052 32.1822 100.063 32.2811L100.087 32.4817C100.095 32.5472 100.043 32.6047 99.9774 32.6047C99.9166 32.6047 99.8673 32.5554 99.8673 32.4946V31.3844C99.8673 31.3752 99.8748 31.3677 99.884 31.3677C99.8932 31.3677 99.9007 31.3602 99.9007 31.351V31.2172C99.9007 31.1341 99.8334 31.0668 99.7503 31.0668H99.6778C99.5736 31.0668 99.4832 30.9945 99.4604 30.8928L99.4536 30.8628C99.3924 30.5908 99.0048 30.5908 98.9436 30.8628L98.9238 30.9508C98.9085 31.0186 98.8483 31.0668 98.7788 31.0668C98.6967 31.0668 98.6302 31.1333 98.6302 31.2154V31.4011C98.6302 31.4196 98.6452 31.4345 98.6637 31.4345C98.6821 31.4345 98.6971 31.4495 98.6971 31.468V32.6421C98.6971 32.6769 98.6689 32.705 98.6341 32.705C98.5965 32.705 98.5672 32.6722 98.5716 32.6347L98.6014 32.3814C98.6131 32.2825 98.4958 32.2032 98.3962 32.2032C98.2966 32.2032 98.1793 32.2826 98.1909 32.3814L98.2173 32.6054C98.2235 32.6585 98.1821 32.705 98.1287 32.705C98.0753 32.705 98.0339 32.6585 98.0401 32.6054L98.0665 32.3814C98.0781 32.2826 97.9608 32.2032 97.8612 32.2032C97.7617 32.2032 97.6444 32.2826 97.656 32.3814L97.6804 32.5888C97.6877 32.6507 97.6393 32.705 97.577 32.705C97.5148 32.705 97.4664 32.6507 97.4737 32.5888L97.4981 32.3814C97.5097 32.2826 97.3924 32.2032 97.2929 32.2032C97.1933 32.2032 97.076 32.2826 97.0876 32.3814L97.112 32.5888C97.1193 32.6507 97.071 32.705 97.0087 32.705C96.9464 32.705 96.8981 32.6507 96.9053 32.5888L96.9297 32.3814C96.9414 32.2826 96.8241 32.2032 96.7245 32.2032C96.6249 32.2032 96.5076 32.2826 96.5192 32.3814L96.5456 32.6054C96.5518 32.6585 96.5104 32.705 96.457 32.705C96.4036 32.705 96.3622 32.6585 96.3684 32.6054L96.3948 32.3814C96.4064 32.2825 96.2891 32.2032 96.1895 32.2032C96.09 32.2032 95.9727 32.2826 95.9843 32.3814L96.0107 32.6054C96.0169 32.6585 95.9755 32.705 95.9221 32.705C95.8687 32.705 95.8272 32.6585 95.8335 32.6054L95.8598 32.3814C95.8715 32.2826 95.7542 32.2032 95.6546 32.2032C95.555 32.2032 95.4377 32.2826 95.4494 32.3814L95.4757 32.6054C95.4819 32.6585 95.4405 32.705 95.3871 32.705C95.3337 32.705 95.2923 32.6585 95.2985 32.6054L95.3451 32.2094C95.3497 32.1707 95.3194 32.1426 95.2824 32.1549C95.2483 32.1662 95.22 32.1409 95.22 32.105V25.617L95.1531 24.6809V24.614C95.1531 24.5771 95.183 24.5472 95.22 24.5472C95.2569 24.5472 95.2868 24.5172 95.2868 24.4803V24.3298C95.2868 24.3021 95.3093 24.2797 95.337 24.2797C95.3647 24.2797 95.3871 24.2572 95.3871 24.2295V23.6353C95.3871 23.6034 95.3613 23.5776 95.3294 23.5776C95.3041 23.5776 95.2817 23.561 95.2743 23.5368L95.1576 23.1575C95.1546 23.1478 95.1525 23.1379 95.1513 23.1278C95.1285 22.9314 94.8433 22.9314 94.8205 23.1278C94.8193 23.1379 94.8172 23.1478 94.8143 23.1575L94.6975 23.5368C94.6901 23.561 94.6677 23.5776 94.6424 23.5776H94.6374C94.6083 23.5776 94.5847 23.6011 94.5847 23.6302C94.5847 23.6684 94.5455 23.6939 94.5106 23.6784L94.3203 23.5938C94.2962 23.5831 94.2702 23.5776 94.2439 23.5776H94.2019C93.9886 23.5776 93.8157 23.4047 93.8157 23.1914V22.5077C93.8157 22.4523 93.7708 22.4074 93.7154 22.4074C93.66 22.4074 93.6151 22.3625 93.6151 22.3071V20.5387C93.6151 20.5183 93.5985 20.5016 93.578 20.5016C93.5606 20.5016 93.5456 20.4896 93.5418 20.4726L93.4242 19.9434C93.4185 19.9179 93.396 19.8998 93.3699 19.8998C93.3391 19.8998 93.3142 19.8749 93.3142 19.8442V18.9971C93.3142 18.9786 93.3292 18.9637 93.3477 18.9637C93.3661 18.9637 93.3811 18.9487 93.3811 18.9302V18.5792C93.3811 18.5515 93.4035 18.529 93.4312 18.529C93.4589 18.529 93.4814 18.5066 93.4814 18.4789V17.9774C93.4814 17.9497 93.4589 17.9272 93.4312 17.9272C93.4035 17.9272 93.3811 17.9048 93.3811 17.8771V16.5855C93.3811 16.5694 93.3941 16.5564 93.4101 16.5564C93.4292 16.5564 93.4431 16.5383 93.4382 16.5199L93.3142 16.0549L93.1701 15.6433C93.1163 15.4893 92.971 15.3862 92.8078 15.3862C92.6183 15.3862 92.4572 15.2479 92.4284 15.0606L91.6111 9.73283C91.5988 9.6529 91.6923 9.60056 91.754 9.6528C91.8228 9.71102 91.9241 9.63971 91.8924 9.55532L91.8431 9.42385C91.8234 9.37126 91.8415 9.31199 91.8872 9.27934L91.8949 9.27379C92.0062 9.19434 91.9445 9.01886 91.808 9.02645L91.772 9.02845C91.7164 9.03154 91.6667 8.99432 91.6539 8.94015C91.6262 8.82219 91.4583 8.82219 91.4305 8.94015C91.4178 8.99432 91.368 9.03154 91.3124 9.02845L91.2764 9.02645C91.1399 9.01886 91.0783 9.19434 91.1895 9.2738L91.1973 9.27935C91.243 9.31199 91.261 9.37126 91.2413 9.42385L91.192 9.55532C91.1604 9.63971 91.2616 9.71102 91.3304 9.6528C91.3921 9.60056 91.4856 9.6529 91.4734 9.73283L90.6532 15.0787C90.6261 15.2556 90.4739 15.3862 90.2949 15.3862C90.1408 15.3862 90.0036 15.4836 89.9527 15.629L89.8036 16.0549L89.6797 16.5199C89.6747 16.5383 89.6886 16.5564 89.7077 16.5564C89.7238 16.5564 89.7368 16.5694 89.7368 16.5855V17.8771C89.7368 17.9048 89.7143 17.9272 89.6866 17.9272C89.6589 17.9272 89.6365 17.9497 89.6365 17.9774V18.4789C89.6365 18.5066 89.6589 18.529 89.6866 18.529C89.7143 18.529 89.7368 18.5515 89.7368 18.5792V18.9302C89.7368 18.9487 89.7517 18.9637 89.7702 18.9637C89.7887 18.9637 89.8036 18.9786 89.8036 18.9971V19.9445C89.8036 19.9752 89.7787 20.0001 89.748 20.0001C89.7219 20.0001 89.6993 20.0182 89.6937 20.0437L89.5793 20.5584C89.5736 20.5838 89.551 20.6019 89.525 20.6019C89.4942 20.6019 89.4693 20.6269 89.4693 20.6576V22.4408C89.4693 22.4777 89.4394 22.5077 89.4024 22.5077C89.3655 22.5077 89.3356 22.5376 89.3356 22.5745V23.5124C89.3356 23.6038 89.2615 23.6779 89.1701 23.6779C89.1469 23.6779 89.124 23.6827 89.1029 23.6921L88.9081 23.7787C88.8733 23.7942 88.8341 23.7687 88.8341 23.7305C88.8341 23.7015 88.8105 23.6779 88.7814 23.6779H88.7764C88.751 23.6779 88.7287 23.6613 88.7212 23.6371L88.6045 23.2578C88.6015 23.2481 88.5994 23.2382 88.5983 23.2281C88.5754 23.0317 88.2903 23.0317 88.2674 23.2281C88.2663 23.2381 88.2642 23.2481 88.2612 23.2578L88.1445 23.6371C88.137 23.6613 88.1147 23.6779 88.0893 23.6779C88.0575 23.6779 88.0317 23.7037 88.0317 23.7356V24.3298C88.0317 24.3575 88.0541 24.38 88.0818 24.38C88.1095 24.38 88.132 24.4024 88.132 24.4301V24.5806C88.132 24.6175 88.1619 24.6475 88.1988 24.6475C88.2357 24.6475 88.2657 24.6774 88.2657 24.7143V24.7812L88.1988 25.7173V32.709C88.1988 32.7437 88.1706 32.7719 88.1359 32.7719C88.0982 32.7719 88.0689 32.739 88.0734 32.7016L88.1031 32.4483C88.1148 32.3494 87.9975 32.2701 87.8979 32.2701C87.7983 32.2701 87.681 32.3494 87.6927 32.4483L87.719 32.6723C87.7253 32.7253 87.6838 32.7719 87.6304 32.7719C87.5771 32.7719 87.5356 32.7253 87.5419 32.6723L87.5682 32.4483C87.5798 32.3494 87.4625 32.2701 87.363 32.2701C87.2634 32.2701 87.1461 32.3494 87.1577 32.4483L87.1841 32.6723C87.1903 32.7253 87.1489 32.7719 87.0955 32.7719C87.0421 32.7719 87.0007 32.7253 87.0069 32.6723L87.0333 32.4483C87.0449 32.3494 86.9276 32.2701 86.828 32.2701C86.7285 32.2701 86.6112 32.3494 86.6228 32.4483L86.6491 32.6723C86.6554 32.7253 86.6139 32.7719 86.5606 32.7719C86.5072 32.7719 86.4657 32.7253 86.472 32.6723L86.4983 32.4483C86.51 32.3494 86.3927 32.2701 86.2931 32.2701C86.1935 32.2701 86.0762 32.3494 86.0878 32.4483L86.1142 32.6723C86.1204 32.7253 86.079 32.7719 86.0256 32.7719C85.9722 32.7719 85.9308 32.7253 85.937 32.6723L85.9634 32.4483C85.975 32.3494 85.8577 32.2701 85.7581 32.2701C85.6586 32.2701 85.5413 32.3494 85.5529 32.4483L85.5714 32.6059C85.5818 32.6943 85.5128 32.7719 85.4238 32.7719C85.3348 32.7719 85.2658 32.6943 85.2762 32.6059L85.2947 32.4483C85.3063 32.3494 85.189 32.2701 85.0895 32.2701C84.9899 32.2701 84.8726 32.3494 84.8842 32.4483L84.9086 32.6557C84.9159 32.7176 84.8676 32.7719 84.8053 32.7719C84.743 32.7719 84.6947 32.7176 84.7019 32.6557L84.7263 32.4483C84.738 32.3494 84.6207 32.2701 84.5211 32.2701C84.4215 32.2701 84.3042 32.3494 84.3158 32.4483L84.3456 32.7016C84.3501 32.739 84.3208 32.7719 84.2831 32.7719C84.2484 32.7719 84.2202 32.7437 84.2202 32.709V31.5181C84.2202 31.5089 84.2277 31.5014 84.2369 31.5014C84.2461 31.5014 84.2536 31.4939 84.2536 31.4847V31.3175C84.2536 31.216 84.1713 31.1336 84.0697 31.1336H83.9936C83.8719 31.1336 83.7665 31.0492 83.7398 30.9305C83.6786 30.6585 83.2908 30.6576 83.2296 30.9296L83.2131 31.0032C83.1959 31.0795 83.1282 31.1336 83.05 31.1336C82.9577 31.1336 82.8828 31.2085 82.8828 31.3008V31.468C82.8828 31.4865 82.8978 31.5014 82.9163 31.5014C82.9347 31.5014 82.9497 31.5164 82.9497 31.5349V32.709C82.9497 32.7437 82.9215 32.7719 82.8867 32.7719C82.8491 32.7719 82.8198 32.739 82.8242 32.7016L82.854 32.4483C82.8657 32.3494 82.7484 32.2701 82.6488 32.2701C82.5492 32.2701 82.4319 32.3494 82.4435 32.4483L82.4699 32.6723C82.4761 32.7253 82.4347 32.7719 82.3813 32.7719C82.3279 32.7719 82.2865 32.7253 82.2927 32.6723L82.3191 32.4483C82.3307 32.3494 82.2134 32.2701 82.1138 32.2701C82.0143 32.2701 81.897 32.3494 81.9086 32.4483L81.935 32.6723C81.9412 32.7253 81.8998 32.7719 81.8464 32.7719C81.793 32.7719 81.7515 32.7253 81.7578 32.6723L81.7841 32.4483C81.7958 32.3494 81.6785 32.2701 81.5789 32.2701C81.4793 32.2701 81.362 32.3494 81.3737 32.4483L81.3941 32.6225C81.4035 32.702 81.3414 32.7719 81.2613 32.7719C81.1812 32.7719 81.119 32.702 81.1284 32.6225L81.1489 32.4483C81.1605 32.3494 81.0432 32.2701 80.9436 32.2701C80.8441 32.2701 80.7268 32.3494 80.7384 32.4483L80.7648 32.6723C80.771 32.7253 80.7296 32.7719 80.6762 32.7719C80.6228 32.7719 80.5814 32.7253 80.5876 32.6723L80.6139 32.4483C80.6256 32.3494 80.5083 32.2701 80.4087 32.2701C80.3091 32.2701 80.1918 32.3494 80.2035 32.4483L80.2298 32.6723C80.2361 32.7253 80.1946 32.7719 80.1412 32.7719C80.0878 32.7719 80.0464 32.7253 80.0527 32.6723L80.079 32.4483C80.0906 32.3494 79.9733 32.2701 79.8738 32.2701C79.7742 32.2701 79.6569 32.3494 79.6685 32.4483L79.6949 32.6723C79.7011 32.7253 79.6597 32.7719 79.6063 32.7719C79.5529 32.7719 79.5115 32.7253 79.5177 32.6723L79.5441 32.4483C79.5557 32.3494 79.4384 32.2701 79.3388 32.2701C79.2393 32.2701 79.1219 32.3494 79.1336 32.4483L79.1599 32.6723C79.1662 32.7253 79.1247 32.7719 79.0713 32.7719C79.018 32.7719 78.9765 32.7253 78.9828 32.6723L79.0091 32.4483C79.0208 32.3494 78.9035 32.2701 78.8039 32.2701C78.7043 32.2701 78.587 32.3494 78.5986 32.4483L78.625 32.6723C78.6312 32.7253 78.5898 32.7719 78.5364 32.7719C78.483 32.7719 78.4416 32.7253 78.4478 32.6723L78.4742 32.4483C78.4858 32.3494 78.3685 32.2701 78.2689 32.2701C78.1694 32.2701 78.0521 32.3494 78.0637 32.4483L78.09 32.6723C78.0963 32.7253 78.0549 32.7719 78.0015 32.7719C77.9481 32.7719 77.9066 32.7253 77.9129 32.6723L77.9392 32.4483C77.9509 32.3494 77.8335 32.2701 77.734 32.2701C77.6344 32.2701 77.5171 32.3494 77.5287 32.4483L77.5482 32.6137C77.5581 32.6979 77.4923 32.7719 77.4075 32.7719C77.3293 32.7719 77.2659 32.7085 77.2659 32.6303V32.2537C77.2659 32.2075 77.2285 32.1701 77.1823 32.1701C77.1362 32.1701 77.0987 32.1327 77.0987 32.0865V31.7187C77.0987 31.7095 77.1062 31.702 77.1155 31.702C77.1247 31.702 77.1322 31.6945 77.1322 31.6853V31.4178C77.1322 31.3901 77.1097 31.3677 77.082 31.3677C77.0543 31.3677 77.0319 31.3452 77.0319 31.3175V31.2497C77.0319 31.2393 77.0305 31.2288 77.0277 31.2187L76.7409 30.1672C76.7359 30.1488 76.7498 30.1306 76.7689 30.1306C76.7849 30.1306 76.7978 30.1177 76.7978 30.1017V30.0303C76.7978 30.0119 76.7829 29.9969 76.7644 29.9969C76.7459 29.9969 76.731 29.9819 76.731 29.9635V29.161C76.731 29.1426 76.7459 29.1276 76.7644 29.1276C76.7829 29.1276 76.7978 29.1126 76.7978 29.0942V29.0607C76.7978 29.0238 76.7679 28.9939 76.731 28.9939H76.6409C76.5746 28.9939 76.5155 28.9522 76.4932 28.8897L76.4631 28.8056C76.3735 28.5546 76.0186 28.5546 75.9289 28.8056L75.8989 28.8897C75.8766 28.9522 75.8174 28.9939 75.7511 28.9939H75.6611C75.6241 28.9939 75.5942 29.0238 75.5942 29.0607V29.0942C75.5942 29.1126 75.6092 29.1276 75.6276 29.1276C75.6461 29.1276 75.6611 29.1426 75.6611 29.161V29.9635C75.6611 29.9819 75.6461 29.9969 75.6276 29.9969C75.6092 29.9969 75.5942 30.0119 75.5942 30.0303V30.1017C75.5942 30.1177 75.6072 30.1306 75.6232 30.1306C75.6423 30.1306 75.6561 30.1488 75.6511 30.1672L75.3643 31.2187C75.3616 31.2288 75.3602 31.2393 75.3602 31.2497V31.3175C75.3602 31.3452 75.3377 31.3677 75.31 31.3677C75.2823 31.3677 75.2599 31.3901 75.2599 31.4178V31.585C75.2599 31.5942 75.2674 31.6017 75.2766 31.6017C75.2858 31.6017 75.2933 31.6092 75.2933 31.6184V31.9862C75.2933 32.0324 75.2559 32.0698 75.2097 32.0698C75.1636 32.0698 75.1261 32.1072 75.1261 32.1534V34.3767C75.1261 34.506 75.0214 34.6108 74.8921 34.6108H74.7249C74.688 34.6108 74.6581 34.6407 74.6581 34.6776C74.6581 34.7146 74.6281 34.7445 74.5912 34.7445H74.541C74.4764 34.7445 74.424 34.6921 74.424 34.6275V34.477C74.424 34.3847 74.3492 34.3099 74.2569 34.3099C74.1645 34.3099 74.0897 34.3847 74.0897 34.477V34.7612C74.0897 34.8813 73.9924 34.9786 73.8724 34.9786C73.7523 34.9786 73.655 35.0759 73.655 35.1959V35.9314C73.655 36.0884 73.5278 36.2156 73.3708 36.2156C73.2139 36.2156 73.0867 36.0884 73.0867 35.9314V34.6944C73.0867 34.3897 72.8397 34.1427 72.535 34.1427H72.2007C72.0806 34.1427 71.9833 34.24 71.9833 34.36V34.4269C71.9833 34.51 71.916 34.5773 71.8329 34.5773C71.7498 34.5773 71.6824 34.51 71.6824 34.4269C71.6824 34.3438 71.6151 34.2764 71.532 34.2764H71.0472C70.6964 34.2764 70.4119 33.992 70.4119 33.6412V32.5444C70.4119 32.3931 70.2893 32.2704 70.1379 32.2704C69.9918 32.2704 69.8714 32.1557 69.8642 32.0098L69.1797 18.025C69.177 17.9702 69.1318 17.9272 69.077 17.9272H69.0077C68.9893 17.9272 68.9743 17.9123 68.9743 17.8938C68.9743 17.8753 68.9593 17.8604 68.9408 17.8604H68.8573C68.7926 17.8604 68.7402 17.808 68.7402 17.7433V17.6932C68.7402 17.6009 68.6654 17.526 68.5731 17.526H68.3624C68.1758 17.526 68.0178 17.3897 67.9862 17.2059C67.8692 16.5273 67.749 16.1218 67.6035 16.1218C67.4809 16.1218 67.3923 16.2555 67.2698 16.2555H64.4266C64.3072 16.2555 64.2123 16.1218 64.0929 16.1218C63.6917 16.1218 63.3908 19.1977 63.3908 22.9758C63.3908 23.9341 63.416 24.842 63.4446 25.6775C63.4515 25.879 63.285 26.0435 63.0837 26.0339C62.9 26.0251 62.7556 25.8737 62.7556 25.6898V23.5776C62.7556 23.5406 62.7855 23.5107 62.8224 23.5107C62.8594 23.5107 62.8893 23.4808 62.8893 23.4438V18.8968C62.8893 18.8599 62.8594 18.8299 62.8224 18.8299C62.7855 18.8299 62.7556 18.8 62.7556 18.7631V15.52C62.7556 15.483 62.7855 15.4531 62.8224 15.4531C62.8594 15.4531 62.8893 15.4232 62.8893 15.3862V11.5915C62.8893 11.3607 62.7022 11.1736 62.4714 11.1736H62.2875C62.1582 11.1736 62.0535 11.0688 62.0535 10.9395C62.0535 10.8103 61.9487 10.7055 61.8194 10.7055H60.8164C60.6871 10.7055 60.5824 10.8103 60.5824 10.9395V11.0398C60.5824 11.1137 60.5225 11.1736 60.4486 11.1736C60.3748 11.1736 60.3149 11.2334 60.3149 11.3073V25.6338C60.3149 25.7264 60.2638 25.8114 60.1821 25.855C60.0151 25.9441 59.8134 25.8231 59.8134 25.6338V24.9818C59.8134 24.9449 59.8433 24.9149 59.8802 24.9149C59.9172 24.9149 59.9471 24.885 59.9471 24.8481V19.9834C59.9471 19.9003 59.8798 19.833 59.7967 19.833C59.7136 19.833 59.6462 19.7656 59.6462 19.6825V15.5701C59.6462 15.5424 59.6687 15.52 59.6964 15.52C59.7241 15.52 59.7465 15.4975 59.7465 15.4698V10.5049C59.7465 10.2833 59.5669 10.1037 59.3453 10.1037H59.2116C59.0638 10.1037 58.9441 9.98392 58.9441 9.8362C58.9441 9.68848 58.8243 9.56873 58.6766 9.56873H57.5399C57.3921 9.56873 57.2724 9.68848 57.2724 9.8362V9.91979C57.2724 10.0213 57.1901 10.1037 57.0885 10.1037C56.987 10.1037 56.9046 10.186 56.9046 10.2876V15.3695C56.9046 15.4342 56.8522 15.4865 56.7876 15.4865C56.723 15.4865 56.6706 15.5389 56.6706 15.6036V20.2509C56.6706 20.297 56.708 20.3345 56.7542 20.3345C56.8003 20.3345 56.8377 20.3719 56.8377 20.4181V24.5862C56.8377 24.645 56.8069 24.6994 56.7566 24.7296C56.6452 24.7964 56.5034 24.7162 56.5034 24.5862V21.6223C56.5034 21.0621 56.0345 20.5985 55.4993 20.7639C55.0809 20.8932 54.6873 21.0972 54.3386 21.3679C54.1529 21.512 54.0477 21.7313 54.0246 21.9652C53.7471 24.7742 53.6458 29.9868 53.6303 30.8709C53.629 30.9445 53.569 30.9999 53.4954 30.9999C53.421 30.9999 53.3606 30.9396 53.3606 30.8651V26.1265C53.3606 26.0327 53.3635 25.9592 53.3026 25.8878C53.1908 25.7565 53.0853 25.5872 52.998 25.4385C52.9307 25.3238 52.8318 25.2135 52.6997 25.1076C52.3975 24.8652 52.157 24.5339 52.157 24.1466V12.6781C52.157 12.6042 52.0971 12.5444 52.0233 12.5444C51.9494 12.5444 51.8895 12.4845 51.8895 12.4106V12.21C51.8895 12.1731 51.8596 12.1431 51.8227 12.1431C51.7857 12.1431 51.7558 12.1132 51.7558 12.0763V11.9155C51.7558 11.8295 51.7078 11.7501 51.6289 11.716C51.529 11.6729 51.4262 11.6369 51.3211 11.6082C50.5683 11.3427 49.7787 11.1961 48.9808 11.1736Z" fill="black"/>
</svg>
